<svg width="50" height="50" viewBox="0 0 50 50" fill="none" xmlns="http://www.w3.org/2000/svg">
<path d="M14.8696 11.72C14.6579 11.72 14.4574 11.7312 14.2797 11.76C14.1601 11.7794 14.0031 11.8133 13.8491 11.8879L13.6977 11.9768L13.5639 12.0891C13.4436 12.2072 13.3612 12.3411 13.3041 12.4573C13.2649 12.5372 13.2313 12.6211 13.2026 12.7073L13.1293 12.97L13.1225 13.0002L13.1176 13.0315C13.054 13.4674 12.9496 13.9167 12.8012 14.3792L12.6381 14.8459L12.6323 14.8606L12.6274 14.8752C11.9576 16.9098 10.8494 18.7259 9.29242 20.3274C7.74029 21.9239 5.93824 23.0646 3.88031 23.759L3.8725 23.762C3.64058 23.8429 3.3993 23.9785 3.21527 24.2053C3.02288 24.4425 2.93988 24.7223 2.93988 25.0002C2.93993 25.2781 3.02286 25.558 3.21527 25.7952C3.39932 26.0219 3.6406 26.1576 3.8725 26.2385L3.88031 26.2405C5.93831 26.9349 7.74025 28.0766 9.29242 29.6731C10.8492 31.2745 11.9577 33.0899 12.6274 35.1243C12.7866 35.6117 12.9196 36.0781 13.0268 36.5237L13.1254 36.9631C13.165 37.1531 13.2181 37.3407 13.2934 37.5081C13.3644 37.6658 13.4854 37.8729 13.6977 38.0227C13.8947 38.1617 14.1203 38.2146 14.2797 38.2405C14.4574 38.2693 14.6579 38.2795 14.8696 38.2795C15.2474 38.2795 15.6465 38.2347 15.976 38.0618C16.1518 37.9695 16.3238 37.8321 16.4496 37.634C16.5454 37.4832 16.5989 37.3214 16.6196 37.1604L16.6303 37.0002L16.6176 36.845C16.6109 36.7973 16.6035 36.7554 16.5981 36.7278C16.583 36.6509 16.5619 36.558 16.5366 36.4534C16.4856 36.2426 16.4102 35.9575 16.3129 35.6018C15.4421 32.1091 13.6681 29.1423 11.0092 26.7102H45.8198L45.9789 26.6292C46.6131 26.3074 47.0599 25.7615 47.06 25.0002C47.06 24.2389 46.6131 23.6932 45.9789 23.3713L45.8198 23.2903H10.9985C12.5902 21.8226 13.8812 20.1407 14.8657 18.2454C15.6966 16.6458 16.2519 15.0519 16.52 13.4651L16.5297 13.4026V13.3508L16.5366 13.3293L16.5424 13.303C16.5509 13.2647 16.5605 13.2178 16.5678 13.1663L16.5795 13.0002L16.5707 12.845C16.5517 12.6884 16.5018 12.5295 16.4116 12.3801C16.2922 12.1827 16.1267 12.0417 15.9526 11.9456C15.6268 11.7657 15.234 11.72 14.8696 11.72Z" fill="#404040" stroke="white" stroke-width="1.5"/>
</svg>
