<svg width="50" height="50" viewBox="0 0 50 50" fill="none" xmlns="http://www.w3.org/2000/svg">
<path d="M35.1304 11.72C35.3421 11.72 35.5426 11.7312 35.7203 11.76C35.8399 11.7794 35.9969 11.8133 36.1509 11.8879L36.3023 11.9768L36.4361 12.0891C36.5564 12.2072 36.6388 12.3411 36.6959 12.4573C36.7351 12.5372 36.7687 12.6211 36.7974 12.7073L36.8707 12.97L36.8775 13.0002L36.8824 13.0315C36.946 13.4674 37.0504 13.9167 37.1988 14.3792L37.3619 14.8459L37.3677 14.8606L37.3726 14.8752C38.0424 16.9098 39.1506 18.7259 40.7076 20.3274C42.2597 21.9239 44.0618 23.0646 46.1197 23.759L46.1275 23.762C46.3594 23.8429 46.6007 23.9785 46.7847 24.2053C46.9771 24.4425 47.0601 24.7223 47.0601 25.0002C47.0601 25.2781 46.9771 25.558 46.7847 25.7952C46.6007 26.0219 46.3594 26.1576 46.1275 26.2385L46.1197 26.2405C44.0617 26.9349 42.2598 28.0766 40.7076 29.6731C39.1508 31.2745 38.0423 33.0899 37.3726 35.1243C37.2134 35.6117 37.0804 36.0781 36.9732 36.5237L36.8746 36.9631C36.835 37.1531 36.7819 37.3407 36.7066 37.5081C36.6356 37.6658 36.5146 37.8729 36.3023 38.0227C36.1053 38.1617 35.8797 38.2146 35.7203 38.2405C35.5426 38.2693 35.3421 38.2795 35.1304 38.2795C34.7526 38.2795 34.3535 38.2347 34.024 38.0618C33.8482 37.9695 33.6762 37.8321 33.5504 37.634C33.4546 37.4832 33.4011 37.3214 33.3804 37.1604L33.3697 37.0002L33.3824 36.845C33.3891 36.7973 33.3965 36.7554 33.4019 36.7278C33.417 36.6509 33.4381 36.558 33.4634 36.4534C33.5144 36.2426 33.5898 35.9575 33.6871 35.6018C34.5579 32.1091 36.3319 29.1423 38.9908 26.7102H4.18024L4.02106 26.6292C3.38693 26.3074 2.94011 25.7615 2.94 25.0002C2.94 24.2389 3.38685 23.6932 4.02106 23.3713L4.18024 23.2903H39.0015C37.4098 21.8226 36.1188 20.1407 35.1343 18.2454C34.3034 16.6458 33.7481 15.0519 33.48 13.4651L33.4703 13.4026V13.3508L33.4634 13.3293L33.4576 13.303C33.4491 13.2647 33.4395 13.2178 33.4322 13.1663L33.4205 13.0002L33.4293 12.845C33.4483 12.6884 33.4982 12.5295 33.5884 12.3801C33.7078 12.1827 33.8733 12.0417 34.0474 11.9456C34.3732 11.7657 34.766 11.72 35.1304 11.72Z" fill="#404040" stroke="white" stroke-width="1.5"/>
</svg>
